# AST/ASF file generated using VICON BodyLanguage
# -----------------------------------------------
:version 1.10
:name VICON
:units
  mass 1.0
  length 0.45
  angle deg
:documentation
   .ast/.asf automatically generated from VICON data using
   VICON BodyBuilder and BodyLanguage model FoxedUp or BRILLIANT.MOD
:root
   order TX TY TZ RX RY RZ
   axis XYZ
   position 0 0 0  
   orientation 0 0 0 
:bonedata
  begin
     id 1 
     name lhipjoint
     direction 0.61522 -0.761478 0.204097 
     length 2.55743 
     axis 0 0 0  XYZ
  end
  begin
     id 2 
     name lfemur
     direction 0.34202 -0.939693 0  
     length 7.61162  
     axis 0 0 20  XYZ
    dof rx ry rz
    limits (-160.0 20.0)
           (-70.0 70.0)
           (-60.0 70.0)
  end
  begin
     id 3 
     name ltibia
     direction 0.34202 -0.939693 0   
     length 8.12393   
     axis 0 0 20   XYZ
    dof rx
    limits (-10.0 170.0)
  end
  begin
     id 4 
     name lfoot
     direction 0.0841971 -0.23133 0.969225   
     length 2.3572   
     axis -90 7.62852e-016 20   XYZ
    dof rx rz
    limits (-45.0 90.0)
           (-70.0 20.0)
  end
  begin
     id 5 
     name ltoes
     direction 1.53562e-011 -4.22209e-011 1   
     length 1.17993   
     axis -90 7.62852e-016 20   XYZ
    dof rx
    limits (-90.0 20.0)
  end
  begin
     id 6 
     name rhipjoint
     direction -0.625247 -0.75382 0.202044   
     length 2.58341  
     axis 0 0 0  XYZ 
  end
  begin
     id 7 
     name rfemur
     direction -0.34202 -0.939693 0   
     length 7.42147   
     axis 0 0 -20   XYZ
    dof rx ry rz
    limits (-160.0 20.0)
           (-70.0 70.0)
           (-70.0 60.0)
  end
  begin
     id 8 
     name rtibia
     direction -0.34202 -0.939693 0   
     length 8.20893   
     axis 0 0 -20   XYZ
    dof rx
    limits (-10.0 170.0)
 end
 begin
     id 9 
     name rfoot
     direction -0.124331 -0.341598 0.931586   
     length 2.45604  
     axis -90 -7.62852e-016 -20   XYZ
    dof rx rz
    limits (-45.0 90.0)
           (-20.0 70.0)
  end
  begin
     id 10 
     name rtoes
     direction -1.5353e-011 -4.2199e-011 1   
     length 1.21323   
     axis -90 -7.62852e-016 -20   XYZ
    dof rx
    limits (-90.0 20.0)
  end
  begin
     id 11 
     name lowerback
     direction -0.0218484 0.994884 -0.0986303   
     length 2.00523   
     axis 0 0 0   XYZ
    dof rx ry rz
    limits (-20.0 45.0)
           (-30.0 30.0)
           (-30.0 30.0)
  end
  begin
     id 12 
     name upperback
     direction -0.0097305 0.999717 -0.0217111   
     length 2.01352   
     axis 0 0 0   XYZ
    dof rx ry rz
    limits (-20.0 45.0)
           (-30.0 30.0)
           (-30.0 30.0)
  end
  begin
     id 13 
     name thorax
     direction -0.000928262 0.999699 0.0245198   
     length 2.02938   
     axis 0 0 0   XYZ
    dof rx ry rz
    limits (-20.0 45.0)
           (-30.0 30.0)
           (-30.0 30.0)
  end
  begin
     id 14 
     name lowerneck
     direction -0.0307979 0.998024 0.0547665   
     length 1.77263   
     axis 0 0 0   XYZ
    dof rx ry rz
    limits (-20.0 45.0)
           (-30.0 30.0)
           (-30.0 30.0)
  end
  begin
     id 15 
     name upperneck
     direction 0.0531587 0.996611 -0.0627734   
     length 1.77971   
     axis 0 0 0   XYZ
    dof rx ry rz
    limits (-20.0 45.0)
           (-30.0 30.0)
           (-30.0 30.0)
  end
  begin
     id 16
     name head
     direction 0.0213833 0.999404 -0.0271147  
     length 1.78263  
     axis 0 0 0   XYZ
    dof rx ry rz
    limits (-20.0 45.0)
           (-30.0 30.0)
           (-30.0 30.0)
  end
  begin
     id 17 
     name lclavicle
     direction 0.940017 0.332249 -0.0773233  
     length 3.73315  
     axis 0 0 0   XYZ
    dof ry rz
    limits (-20.0 10.0)
           (0.0 20.0)
  end
  begin
     id 18 
     name lhumerus
     direction 1 -4.48944e-011 7.52288e-028   
     length 5.40188   
     axis 180 -30 -90   XYZ
    dof rx ry rz
    limits (-60.0 90.0)
           (-90.0 90.0)
           (-90.0 90.0)
  end
  begin
     id 19
     name lradius
     direction 1 -4.48988e-011 1.48381e-027   
     length 3.68559   
     axis 180 -30 -90   XYZ
    dof rx
    limits (-10.0 170.0)
  end
  begin
     id 20
     name lwrist
     direction 1 -4.48925e-011 2.56952e-028   
     length 1.84279   
     axis -5.12785e-016 90 90   XYZ
    dof ry
    limits (-180.0 0.0)
 end
  begin
     id 21 
     name lhand
     direction 1 -4.49009e-011 5.13905e-028   
     length 0.61753   
     axis -3.27915e-016 90 90   XYZ
    dof rx rz
    limits (-90.0 90.0)
           (-45.0 45.0)
  end
  begin
     id 22 
     name lfingers
     direction 1 -4.49012e-011 1.02781e-027   
     length 0.497868   
     axis -6.5583e-016 90 90   XYZ
    dof rx
    limits (0.0 90.0)
  end
  begin
     id 23
     name lthumb
     direction 0.707107 -6.34987e-011 0.707107   
     length 0.714842   
     axis -90 45 2.85299e-015   XYZ
    dof rx rz
    limits (-45.0 45.0)
           (-45.0 45.0)
  end
  begin
     id 24 
     name rclavicle
     direction -0.9009 0.425937 -0.0834057   
     length 3.27864  
     axis 0 0 0   XYZ 
    dof ry rz
    limits (-10.0 20.0)
           (-20.0 0.0)
  end
  begin
     id 25 
     name rhumerus
     direction -1 -4.48953e-011 -1.03572e-027  
     length 6.1067   
     axis 180 30 90   XYZ
    dof rx ry rz
    limits (-90.0 60.0)
           (-90.0 90.0)
           (-90.0 90.0)
  end
  begin
     id 26 
     name rradius
     direction -1 -4.48975e-011 1.20742e-027   
     length 3.63052   
     axis 180 30 90   XYZ
    dof rx
    limits (-10.0 170.0)
  end
  begin
     id 27 
     name rwrist
     direction -1 -4.49017e-011 2.56952e-028   
     length 1.81526   
     axis -5.12785e-016 -90 -90   XYZ
    dof ry
    limits (-180.0 0.0)
  end
  begin
     id 28
     name rhand
     direction -1 -4.48832e-011 5.13905e-028   
     length 0.583848   
     axis -3.27915e-016 -90 -90   XYZ
    dof rx rz
    limits (-90.0 90.0)
           (-45.0 45.0)
  end
  begin
     id 29
     name rfingers
     direction -1 -4.48729e-011 1.02781e-027   
     length 0.470713   
     axis -6.5583e-016 -90 -90   XYZ
    dof rx
    limits (0.0 90.0)
  end
  begin
     id 30
     name rthumb
     direction -0.707107 -6.34964e-011 0.707107   
     length 0.675852   
     axis -90 -45 -2.85299e-015   XYZ
    dof rx rz
    limits (-45.0 45.0)
           (-45.0 45.0)
  end
:hierarchy
  begin
    root lhipjoint rhipjoint lowerback
    lhipjoint lfemur
    lfemur ltibia
    ltibia lfoot
    lfoot ltoes
    rhipjoint rfemur
    rfemur rtibia
    rtibia rfoot
    rfoot rtoes
    lowerback upperback
    upperback thorax
    thorax lowerneck lclavicle rclavicle
    lowerneck upperneck
    upperneck head
    lclavicle lhumerus
    lhumerus lradius
    lradius lwrist
    lwrist lhand lthumb
    lhand lfingers
    rclavicle rhumerus
    rhumerus rradius
    rradius rwrist
    rwrist rhand rthumb
    rhand rfingers
  end

#!OML:ASF F:\VICON\USERDATA\INSTALL\rory3\rory3.ASF
:FULLY-SPECIFIED
:DEGREES
144
root -0.906465 16.3867 2.42592 -6.04873 -8.41235 -0.502832
lowerback 14.0514 1.50273 -2.35872
upperback 2.77548 1.63072 0.0209495
thorax -5.00776 0.831438 1.05971
lowerneck -11.9656 0.219935 -5.69536
upperneck 6.04716 0.653222 6.12128
head 3.70651 0.512298 2.84559
rclavicle 6.53505e-015 -4.77083e-015
rhumerus -31.4814 -36.5374 -63.9713
rradius 32.5515
rwrist -29.9353
rhand -32.9969 -7.5157
rfingers 7.12502
rthumb -6.21126 -37.4046
lclavicle 6.53505e-015 -4.77083e-015
lhumerus -35.2852 35.6342 62.5489
lradius 36.4224
lwrist 50.7077
lhand -28.896 36.8846
lfingers 7.12502
lthumb -2.25129 66.8524
rfemur -18.3873 17.602 13.4831
rtibia 63.9357
rfoot -33.9032 -13.694
rtoes -21.2281
lfemur -19.7662 4.22134 -18.5684
ltibia 69.1761
lfoot -31.7454 -3.33089
ltoes -4.39783
145
root -0.887699 16.546 2.43612 -5.69402 -8.61931 -0.652225
lowerback 13.594 1.50742 -2.16305
upperback 2.6337 1.68413 0.147179
thorax -4.90719 0.856637 1.08024
lowerneck -12.0925 0.2602 -5.59894
upperneck 6.31265 0.697017 6.02838
head 3.80583 0.533156 2.80745
rclavicle 1.58531e-014 -1.25234e-014
rhumerus -31.0005 -36.1959 -62.9611
rradius 33.2962
rwrist -30.2225
rhand -33.2693 -7.70682
rfingers 7.12502
rthumb -6.47422 -37.5879
lclavicle 1.58531e-014 -1.25234e-014
lhumerus -34.525 35.6997 61.808
lradius 36.7684
lwrist 50.5482
lhand -28.9446 35.4237
lfingers 7.12502
lthumb -2.29822 65.391
rfemur -18.1861 17.7847 13.6073
rtibia 62.5833
rfoot -32.1586 -13.5013
rtoes -20.282
lfemur -19.3576 4.16604 -18.4307
ltibia 67.6175
lfoot -30.2365 -3.34992
ltoes -4.58238
146
root -0.866033 16.7197 2.45157 -5.38069 -8.82928 -0.956125
lowerback 13.1883 1.50765 -1.72739
upperback 2.48584 1.7622 0.284714
thorax -4.83464 0.890815 0.972088
lowerneck -12.0781 0.280169 -5.6053
upperneck 6.46735 0.715302 6.06681
head 3.84941 0.543933 2.82297
rclavicle 1.66731e-014 5.1684e-015
rhumerus -30.5277 -36.1225 -61.7124
rradius 33.9473
rwrist -30.1345
rhand -33.5654 -8.02223
rfingers 7.12502
rthumb -6.76007 -37.8943
lclavicle 1.66731e-014 5.1684e-015
lhumerus -33.898 35.1863 61.0577
lradius 37.4904
lwrist 50.7926
lhand -28.9506 35.1058
lfingers 7.12502
lthumb -2.30404 65.0731
rfemur -17.8139 18.0284 13.9445
rtibia 61.1681
rfoot -30.1465 -13.3641
rtoes -19.6009
lfemur -18.8582 4.15987 -18.0743
ltibia 65.9781
lfoot -28.5191 -3.4381
ltoes -5.05074
147
root -0.83951 16.9258 2.47735 -5.16918 -9.03082 -0.929293
lowerback 12.7983 1.52837 -1.53405
upperback 2.3007 1.82431 0.30173
thorax -4.81148 0.920354 0.876728
lowerneck -11.9563 0.297596 -5.62792
upperneck 6.6607 0.72552 6.11348
head 3.8877 0.549245 2.84267
rclavicle -1.51573e-015 3.97569e-016
rhumerus -30.1529 -36.3843 -60.1737
rradius 34.4285
rwrist -29.571
rhand -33.6567 -8.01275
rfingers 7.12502
rthumb -6.84816 -37.882
lclavicle -1.51573e-015 3.97569e-016
lhumerus -33.4879 34.5275 60.0366
lradius 38.3424
lwrist 50.939
lhand -28.832 34.8023
lfingers 7.12502
lthumb -2.18948 64.7708
rfemur -17.4183 18.3035 13.8917
rtibia 59.7006
rfoot -28.0408 -13.4659
rtoes -20.056
lfemur -18.1605 4.06602 -18.0663
ltibia 64.1856
lfoot -26.6216 -3.88463
ltoes -4.64248
148
root -0.811198 17.1491 2.50082 -5.00809 -9.13349 -0.579115
lowerback 12.3937 1.50406 -1.65006
upperback 2.14195 1.77919 0.209725
thorax -4.75448 0.900601 0.860629
lowerneck -11.8748 0.353874 -5.54803
upperneck 6.95842 0.778376 6.06776
head 3.96247 0.573823 2.82118
rclavicle -1.13059e-015 1.09332e-014
rhumerus -29.5784 -36.7495 -58.6815
rradius 34.8078
rwrist -28.8727
rhand -33.5558 -7.38623
rfingers 7.12502
rthumb -6.75081 -37.2586
lclavicle -1.13059e-015 1.09332e-014
lhumerus -33.0232 34.1467 58.755
lradius 39.0627
lwrist 50.8819
lhand -28.852 34.5777
lfingers 7.12502
lthumb -2.20874 64.546
rfemur -17.1563 18.4838 13.4591
rtibia 58.2235
rfoot -25.4741 -13.8718
rtoes -22.3485
lfemur -17.4019 3.89113 -18.4055
ltibia 62.2969
lfoot -24.4237 -4.33048
ltoes -4.96124
149
root -0.788635 17.3465 2.51295 -4.79221 -9.32493 -0.51753
lowerback 11.9737 1.4851 -1.53655
upperback 2.03725 1.77644 0.20719
thorax -4.62891 0.898012 0.802934
lowerneck -11.758 0.400131 -5.46446
upperneck 7.1197 0.823925 5.98682
head 3.99052 0.592435 2.78599
rclavicle -1.60022e-014 7.95139e-015
rhumerus -28.8306 -36.8496 -57.3244
rradius 35.3341
rwrist -28.228
rhand -33.3109 -7.04178
rfingers 7.12502
rthumb -6.51439 -36.9216
lclavicle -1.60022e-014 7.95139e-015
lhumerus -32.3738 33.7674 57.4837
lradius 39.7628
lwrist 50.9542
lhand -29.201 34.3657
lfingers 7.12502
lthumb -2.54582 64.3303
rfemur -16.6694 18.9287 13.3249
rtibia 56.7868
rfoot -23.4328 -13.2726
rtoes -22.7991
lfemur -16.8346 3.90103 -18.3338
ltibia 60.507
lfoot -21.829 -4.79542
ltoes -6.05358
150
root -0.769102 17.5548 2.52435 -4.45703 -9.52199 -0.629322
lowerback 11.539 1.46671 -1.32017
upperback 1.88375 1.79074 0.293117
thorax -4.54596 0.903412 0.776661
lowerneck -11.6405 0.408938 -5.55563
upperneck 7.23734 0.844059 5.95436
head 4.00567 0.5963 2.79224
rclavicle 3.66509e-015 4.87022e-015
rhumerus -28.1132 -36.8031 -55.9046
rradius 36.0191
rwrist -27.6666
rhand -33.2844 -6.82472
rfingers 7.12502
rthumb -6.48881 -36.7053
lclavicle 3.66509e-015 4.87022e-015
lhumerus -31.7485 33.3625 56.1757
lradius 40.5278
lwrist 51.1254
lhand -29.5585 33.8495
lfingers 7.12502
lthumb -2.89104 63.8097
rfemur -16.4621 19.4067 13.3683
rtibia 55.3409
rfoot -20.8164 -13.1764
rtoes -23.2832
lfemur -16.4107 3.99432 -18.0234
ltibia 58.7241
lfoot -19.0201 -5.2757
ltoes -7.16986
151
root -0.747806 17.7745 2.54161 -4.21807 -9.54313 -0.493641
lowerback 11.1279 1.37923 -1.27364
upperback 1.75881 1.68451 0.250391
thorax -4.44374 0.850729 0.729811
lowerneck -11.7222 0.44601 -5.55792
upperneck 7.57328 0.887997 5.94388
head 4.11901 0.618282 2.79658
rclavicle -1.17345e-014 -1.15295e-014
rhumerus -27.2671 -36.8451 -54.6064
rradius 36.6922
rwrist -27.1378
rhand -33.443 -6.75573
rfingers 7.12502
rthumb -6.64191 -36.6316
lclavicle -1.17345e-014 -1.15295e-014
lhumerus -31.1265 32.8747 54.6549
lradius 41.3358
lwrist 51.3254
lhand -29.7985 33.4129
lfingers 7.12502
lthumb -3.12284 63.3697
rfemur -16.2056 19.7817 13.1105
rtibia 53.8553
rfoot -18.1657 -13.0673
rtoes -22.9686
lfemur -15.8998 4.06687 -17.9863
ltibia 56.9452
lfoot -16.1718 -5.70351
ltoes -8.25186
152
root -0.727139 17.9957 2.56048 -3.99641 -9.49082 -0.382788
lowerback 10.7001 1.26068 -1.16404
upperback 1.66089 1.54266 0.175582
thorax -4.30046 0.778908 0.619008
lowerneck -11.78 0.509619 -5.54418
upperneck 7.87578 0.957575 6.00572
head 4.21659 0.657251 2.82216
rclavicle 6.1499e-015 6.16232e-015
rhumerus -26.3287 -37.0406 -53.3387
rradius 37.3485
rwrist -26.5354
rhand -33.784 -6.71781
rfingers 7.12502
rthumb -6.97111 -36.583
lclavicle 6.1499e-015 6.16232e-015
lhumerus -30.3791 32.373 53.0363
lradius 42.078
lwrist 51.523
lhand -30.0264 33.2973
lfingers 7.12502
lthumb -3.34291 63.2508
rfemur -15.8991 20.0919 12.8827
rtibia 52.3217
rfoot -15.392 -12.8989
rtoes -22.1135
lfemur -15.4017 4.11413 -17.8751
ltibia 55.1245
lfoot -13.1008 -6.31742
ltoes -7.96209
153
root -0.709187 18.2107 2.57487 -3.71353 -9.4506 -0.368802
lowerback 10.2757 1.1567 -1.01328
upperback 1.50835 1.42625 0.155866
thorax -4.21732 0.719835 0.536763
lowerneck -11.569 0.564798 -5.59361
upperneck 7.98663 1.01891 6.07442
head 4.21146 0.68699 2.85488
rclavicle 1.3213e-014 4.57205e-015
rhumerus -25.398 -36.9988 -51.9951
rradius 38.0305
rwrist -26.0685
rhand -34.305 -6.69276
rfingers 7.12502
rthumb -7.474 -36.5407
lclavicle 1.3213e-014 4.57205e-015
lhumerus -29.6387 31.916 51.3423
lradius 42.7564
lwrist 51.667
lhand -29.9418 33.0103
lfingers 7.12502
lthumb -3.26124 62.9651
rfemur -15.6994 20.4097 12.7557
rtibia 50.7734
rfoot -12.4275 -12.7579
rtoes -20.0482
lfemur -15.0213 4.15531 -17.5973
ltibia 53.2733
lfoot -9.66933 -7.03552
ltoes -7.22172
154
root -0.692296 18.4144 2.58479 -3.50077 -9.31946 -0.248235
lowerback 9.91988 1.0578 -0.98739
upperback 1.39905 1.30093 0.131397
thorax -4.13 0.657825 0.519216
lowerneck -11.3969 0.559587 -5.59017
upperneck 8.03275 1.0153 5.94311
head 4.19817 0.675192 2.812
rclavicle 1.59183e-014 1.04362e-015
rhumerus -24.4561 -36.7002 -50.6255
rradius 38.8423
rwrist -25.6888
rhand -34.6432 -6.59958
rfingers 7.12502
rthumb -7.80045 -36.4357
lclavicle 1.59183e-014 1.04362e-015
lhumerus -28.7831 31.5001 49.6921
lradius 43.4051
lwrist 51.7364
lhand -29.7606 32.5288
lfingers 7.12502
lthumb -3.08627 62.4862
rfemur -15.4467 20.5779 12.5321
rtibia 49.2738
rfoot -9.53705 -12.712
rtoes -16.5371
lfemur -14.6216 4.15905 -17.4122
ltibia 51.4212
lfoot -6.05534 -7.6855
ltoes -8.06523
155
root -0.676459 18.6129 2.59728 -3.30882 -9.09388 0.0278966
lowerback 9.55198 0.942183 -1.11454
upperback 1.33097 1.13486 0.0452002
thorax -3.99393 0.57706 0.528556
lowerneck -11.5258 0.532417 -5.57409
upperneck 8.29043 0.979645 5.88939
head 4.30074 0.656477 2.79455
rclavicle -8.50736e-015 1.98785e-015
rhumerus -23.3992 -36.5446 -49.286
rradius 39.5957
rwrist -25.0458
rhand -35.0973 -6.55547
rfingers 7.12502
rthumb -8.23869 -36.3748
lclavicle -8.50736e-015 1.98785e-015
lhumerus -27.8039 31.2674 48.0027
lradius 44.044
lwrist 51.6127
lhand -29.5905 32.1324
lfingers 7.12502
lthumb -2.92202 62.0921
rfemur -15.1566 20.5314 12.1424
rtibia 47.8554
rfoot -6.93365 -12.5707
rtoes -11.8389
lfemur -14.2248 4.11015 -17.3818
ltibia 49.5346
lfoot -2.28479 -8.20817
ltoes -8.26292
156
root -0.66128 18.8027 2.61044 -3.05674 -8.87787 0.206908
lowerback 9.14852 0.838487 -1.15025
upperback 1.23276 0.995963 -0.0241526
thorax -3.86815 0.508569 0.499357
lowerneck -11.605 0.531258 -5.64441
upperneck 8.59284 0.969673 6.01657
head 4.406 0.657735 2.84943
rclavicle -2.32299e-014 6.90777e-015
rhumerus -22.3161 -36.7391 -47.8228
rradius 40.2176
rwrist -24.1576
rhand -35.4431 -6.33937
rfingers 7.12502
rthumb -8.57237 -36.1454
lclavicle -2.32299e-014 6.90777e-015
lhumerus -26.7739 30.9276 46.3104
lradius 44.7003
lwrist 51.4425
lhand -29.4519 32.0365
lfingers 7.12502
lthumb -2.78815 61.998
rfemur -14.9485 20.3409 11.8449
rtibia 46.5651
rfoot -5.15847 -12.2847
rtoes -7.75076
lfemur -13.9133 4.0403 -17.1878
ltibia 47.6383
lfoot 1.75159 -8.57022
ltoes -6.07827
157
root -0.646596 18.9774 2.62443 -2.83135 -8.59015 0.491486
lowerback 8.68025 0.707692 -1.32444
upperback 1.15107 0.809184 -0.0992769
thorax -3.68991 0.417814 0.547323
lowerneck -11.6448 0.54038 -5.68258
upperneck 8.89445 0.974959 6.06315
head 4.50431 0.662164 2.8747
rclavicle -7.98245e-015 1.54058e-015
rhumerus -21.1548 -36.8565 -46.3401
rradius 40.8247
rwrist -23.2284
rhand -35.4841 -5.66253
rfingers 7.12502
rthumb -8.61198 -35.4669
lclavicle -7.98245e-015 1.54058e-015
lhumerus -25.7493 30.5715 44.5555
lradius 45.3555
lwrist 51.3006
lhand -29.3437 31.6442
lfingers 7.12502
lthumb -2.68367 61.6071
rfemur -14.7338 20.0284 11.457
rtibia 45.4603
rfoot -4.62476 -12.0164
rtoes -6.09755
lfemur -13.5966 3.85707 -17.0975
ltibia 45.7434
lfoot 5.78001 -8.69639
ltoes -4.14575
